<?xml version="1.0" standalone="no"?>
<!DOCTYPE svg PUBLIC "-//W3C//DTD SVG 20010904//EN"
 "http://www.w3.org/TR/2001/REC-SVG-20010904/DTD/svg10.dtd">
<svg version="1.0" xmlns="http://www.w3.org/2000/svg"
 width="16.000000pt" height="16.000000pt" viewBox="0 0 16.000000 16.000000"
 preserveAspectRatio="xMidYMid meet">
<metadata>
Created by potrace 1.11, written by Peter Selinger 2001-2013
</metadata>
<g transform="translate(0.000000,16.000000) scale(0.008889,-0.008889)"
fill="#000000" stroke="none">
<path d="M829 1685 c-2 -1 -27 -6 -56 -9 -28 -3 -89 -14 -134 -26 -45 -11 -84
-20 -86 -20 -2 0 -2 -4 1 -9 4 -5 24 -5 48 1 94 22 226 35 327 33 92 -3 260
-24 314 -41 9 -3 17 -1 17 5 0 21 -205 62 -331 67 -53 1 -98 1 -100 -1z"/>
<path d="M487 1534 c-4 -36 -13 -80 -22 -96 -23 -46 -19 -50 26 -28 41 21 69
66 69 109 0 20 -45 81 -59 81 -5 0 -11 -30 -14 -66z m47 10 c11 -30 5 -69 -14
-94 -15 -18 -18 -20 -13 -6 4 12 3 17 -4 13 -6 -4 -5 9 3 33 8 22 11 46 8 55
-3 8 -2 15 4 15 5 0 13 -7 16 -16z"/>
<path d="M1276 1569 c-14 -17 -26 -43 -26 -57 0 -30 34 -92 50 -92 6 0 1 13
-11 30 -21 27 -28 78 -14 100 11 19 22 10 18 -14 -3 -13 3 -39 12 -57 13 -28
13 -31 0 -15 -12 16 -15 17 -15 4 0 -8 7 -21 15 -28 8 -6 13 -16 12 -22 -1 -5
9 -14 22 -19 20 -8 22 -7 16 8 -21 50 -35 111 -35 150 0 23 -4 43 -9 43 -5 0
-21 -14 -35 -31z"/>
<path d="M968 1578 c-8 -4 4 -8 30 -8 23 0 42 2 42 4 0 8 -60 12 -72 4z"/>
<path d="M298 1563 c-9 -2 -19 -10 -21 -17 -8 -20 9 -40 28 -33 9 4 13 12 9
18 -4 7 -1 10 7 7 16 -5 29 -51 23 -81 -17 -84 2 -205 37 -234 13 -10 15 -7
16 23 2 62 50 112 79 82 12 -12 12 -16 -2 -33 -13 -17 -15 -17 -10 -3 6 20
-11 35 -25 21 -17 -17 2 -44 29 -41 32 4 47 28 39 60 -8 31 -37 40 -71 22 -14
-7 -26 -11 -26 -10 0 2 7 23 15 46 24 67 20 117 -11 145 -15 14 -32 26 -38 26
-47 5 -63 5 -78 2z m102 -43 c21 -21 25 -54 14 -109 -8 -38 -23 -42 -16 -3 8
46 -10 16 -24 -40 l-14 -53 5 59 c3 33 10 65 15 71 6 7 7 15 3 18 -3 4 -7 17
-7 29 -1 13 -5 29 -9 36 -13 19 11 14 33 -8z m-3 -172 c-3 -8 -6 -5 -6 6 -1
11 2 17 5 13 3 -3 4 -12 1 -19z"/>
<path d="M383 1495 c0 -8 4 -12 9 -9 5 3 6 10 3 15 -9 13 -12 11 -12 -6z"/>
<path d="M1415 1550 c-19 -10 -34 -27 -41 -50 -11 -34 -10 -45 20 -137 7 -21
6 -22 -20 -8 -29 15 -52 10 -71 -14 -13 -17 -7 -51 11 -63 20 -13 54 -8 60 9
8 20 -8 38 -24 28 -9 -6 -9 -10 1 -17 11 -7 9 -8 -6 -6 -28 4 -31 35 -5 43 38
12 74 -39 72 -100 l-2 -30 25 30 c32 39 38 72 32 184 -5 80 -3 94 14 113 12
15 17 17 13 7 -8 -24 15 -34 33 -16 14 13 13 17 -8 31 -29 18 -62 17 -104 -4z
m28 -22 c-6 -7 -9 -23 -8 -35 1 -12 -3 -19 -8 -16 -6 4 -7 1 -2 -8 5 -7 10
-25 11 -39 1 -14 5 -47 8 -75 l5 -50 -14 55 c-9 30 -16 63 -17 72 -1 9 -5 15
-9 12 -4 -2 -3 -19 2 -37 14 -50 9 -66 -7 -22 -8 22 -15 58 -16 79 0 32 5 44
28 63 29 23 45 23 27 1z"/>
<path d="M1410 1500 c-9 -6 -10 -10 -3 -10 6 0 15 5 18 10 8 12 4 12 -15 0z"/>
<path d="M730 1550 c-7 -4 71 -7 173 -6 102 0 188 4 192 7 8 9 -351 8 -365 -1z"/>
<path d="M718 1523 c18 -2 45 -2 60 0 15 2 0 4 -33 4 -33 0 -45 -2 -27 -4z"/>
<path d="M883 1523 c9 -2 23 -2 30 0 6 3 -1 5 -18 5 -16 0 -22 -2 -12 -5z"/>
<path d="M965 1521 c11 -5 26 -6 33 -3 7 2 12 -1 10 -9 -2 -7 5 -15 15 -17 9
-2 17 1 17 7 0 6 -7 7 -17 4 -10 -4 -14 -2 -10 4 4 7 38 11 77 11 39 0 74 2
77 6 4 3 -45 6 -108 5 -67 0 -106 -4 -94 -8z"/>
<path d="M665 1500 c-2 -3 5 -7 16 -7 10 -1 19 2 19 6 0 9 -29 10 -35 1z"/>
<path d="M760 1500 c-9 -6 -10 -10 -3 -10 6 0 15 5 18 10 8 12 4 12 -15 0z"/>
<path d="M1054 1499 c-3 -5 21 -9 52 -9 32 0 55 2 53 4 -9 9 -99 13 -105 5z"/>
<path d="M626 1471 c-2 -3 31 -6 75 -7 43 0 79 3 79 8 0 10 -148 9 -154 -1z"/>
<path d="M1090 1471 c0 -10 97 -7 107 3 4 3 -19 6 -50 6 -31 0 -57 -4 -57 -9z"/>
<path d="M633 1443 c9 -8 146 -8 154 1 4 3 -31 6 -77 6 -46 0 -80 -3 -77 -7z"/>
<path d="M1118 1443 c23 -2 59 -2 80 0 20 2 1 4 -43 4 -44 0 -61 -2 -37 -4z"/>
<path d="M710 1419 c0 -4 50 -7 110 -7 61 0 110 3 110 7 0 3 -49 7 -110 7 -60
0 -110 -3 -110 -7z"/>
<path d="M1065 1420 c-2 -4 23 -8 55 -9 33 -1 60 2 60 7 0 10 -109 12 -115 2z"/>
<path d="M276 1369 c-23 -39 -15 -71 25 -99 36 -27 43 -22 28 16 -6 16 -13 45
-14 64 -4 51 -4 50 -13 50 -4 0 -16 -14 -26 -31z m22 -16 c-1 -10 1 -31 5 -48
7 -28 6 -29 -8 -11 -15 20 -20 58 -8 69 10 11 12 9 11 -10z"/>
<path d="M621 1396 c7 -8 129 -10 136 -3 3 4 -27 7 -67 7 -40 0 -71 -2 -69 -4z"/>
<path d="M932 1394 c9 -8 153 -11 174 -3 10 4 -26 8 -80 8 -55 1 -97 -2 -94
-5z"/>
<path d="M1158 1393 c6 -2 18 -2 25 0 6 3 1 5 -13 5 -14 0 -19 -2 -12 -5z"/>
<path d="M1492 1354 c-1 -25 -7 -54 -12 -64 -18 -33 -12 -41 19 -26 38 20 57
66 40 98 -12 22 -28 38 -40 38 -3 0 -7 -21 -7 -46z m33 -33 c-3 -17 -11 -34
-17 -38 -8 -4 -9 0 -5 11 4 10 7 32 7 49 0 23 3 28 11 20 7 -7 8 -24 4 -42z"/>
<path d="M876 1372 c-3 -6 -5 -31 -4 -56 0 -25 -2 -49 -5 -53 -4 -3 -7 6 -7
21 0 33 -23 31 -28 -2 -3 -18 -10 -22 -41 -22 -30 0 -40 -5 -53 -28 -10 -17
-15 -38 -11 -52 4 -16 3 -21 -6 -16 -6 4 -8 12 -5 18 4 6 -1 8 -12 6 -11 -2
-18 -10 -17 -16 2 -7 -6 -12 -16 -12 -25 0 -51 -36 -51 -70 l0 -25 -19 24 -19
24 -11 -22 c-7 -12 -16 -19 -21 -16 -5 3 -12 0 -16 -6 -4 -7 -3 -9 3 -6 11 7
12 -39 2 -58 -10 -18 -9 -115 1 -115 6 0 10 5 10 10 0 6 5 10 12 10 6 0 1 -11
-12 -25 -13 -14 -20 -25 -15 -25 4 0 23 11 41 25 49 38 52 30 6 -17 -23 -23
-40 -44 -37 -46 2 -3 30 16 61 42 76 63 85 58 16 -9 -74 -71 -55 -71 30 0 36
30 69 55 72 55 4 0 -21 -27 -54 -59 -33 -32 -60 -65 -60 -72 1 -11 3 -10 13 1
18 23 157 133 162 129 2 -3 -17 -22 -43 -44 -61 -51 -116 -113 -86 -97 11 6
26 18 33 26 18 21 146 116 157 116 5 0 -7 -12 -26 -27 -59 -46 -130 -115 -130
-126 0 -6 12 1 28 15 27 26 155 118 182 132 8 4 -5 -10 -29 -31 -122 -104
-177 -169 -71 -83 59 47 164 120 174 120 4 0 -16 -19 -46 -42 -67 -53 -149
-130 -144 -135 2 -2 43 27 90 65 48 38 106 79 129 92 55 30 60 35 -140 -135
-13 -11 -23 -23 -23 -27 0 -5 26 12 58 38 135 108 202 153 202 137 0 -5 -12
-16 -27 -25 -16 -10 -40 -27 -54 -40 -64 -56 -119 -109 -119 -114 0 -9 26 9
65 45 51 46 185 141 199 141 6 0 -5 -13 -24 -28 -73 -57 -181 -154 -176 -159
2 -3 32 18 65 45 72 60 185 142 197 142 9 0 -1 -9 -96 -90 -83 -70 -93 -80
-88 -85 2 -2 29 16 58 41 30 24 83 63 117 86 65 43 82 65 59 74 -8 3 -59 4
-115 2 -56 -2 -101 0 -101 5 0 4 44 7 98 8 113 1 172 16 77 20 l-60 3 53 3
c53 4 65 15 36 31 -9 5 -22 25 -29 43 -7 19 -16 42 -20 52 -6 14 -2 17 26 17
39 0 35 7 -6 13 -23 3 -31 9 -33 29 -3 21 -8 25 -38 24 -35 -1 -49 -16 -14
-16 21 0 24 -15 11 -59 -6 -21 -8 -22 -20 -7 -7 8 -17 13 -22 10 -15 -9 -48
39 -47 67 3 36 -31 78 -63 79 -18 0 -26 5 -26 18 0 42 -4 68 -12 81 -10 16
-86 27 -95 13z m62 -19 c-10 -2 -26 -2 -35 0 -10 3 -2 5 17 5 19 0 27 -2 18
-5z m3 -44 c4 -76 3 -252 -2 -254 -3 -2 -13 5 -22 15 -10 12 -23 17 -34 13
-14 -5 -13 -1 4 14 13 11 19 23 16 27 -13 12 -14 98 -2 112 6 8 7 14 2 14 -10
0 -17 66 -8 79 9 16 45 -1 46 -20z m26 -201 c-1 -40 -3 -8 -3 72 0 80 2 112 3
73 2 -40 2 -106 0 -145z m-151 114 c19 -2 33 3 41 14 14 19 18 7 5 -12 -7 -13
-35 -17 -90 -15 -20 1 -31 5 -27 11 4 6 11 8 16 4 5 -3 9 -2 8 3 -3 20 2 27
10 14 5 -8 22 -16 37 -19z m31 15 c4 -4 -7 -7 -24 -5 -18 1 -30 5 -28 8 5 9
43 6 52 -3z m158 -9 c-6 -21 -5 -22 8 -5 13 15 16 15 27 2 7 -8 14 -30 17 -50
4 -33 3 -35 -26 -35 -29 0 -31 3 -31 35 0 19 -5 35 -10 35 -7 0 -7 6 0 20 14
27 23 25 15 -2z m-145 -63 c0 -15 -6 -25 -14 -25 -25 0 -45 -39 -39 -77 6 -33
5 -34 -23 -29 -16 2 -32 5 -35 5 -10 1 -5 35 6 43 6 5 6 8 -1 8 -13 0 -14 31
-1 48 5 6 5 12 0 12 -5 0 -9 9 -10 20 -2 18 4 20 58 20 56 0 59 -1 59 -25z
m-156 -40 c-24 -18 -44 -19 -44 -2 0 8 -4 7 -10 -3 -5 -8 -10 -10 -10 -4 0 16
5 19 45 21 34 2 36 1 19 -12z m334 -9 c12 2 22 -1 22 -6 0 -6 -3 -10 -7 -11
-5 0 -19 -2 -33 -3 -25 -3 -43 11 -33 27 2 4 10 4 16 -1 7 -5 22 -8 35 -6z
m-176 -8 c-14 -14 -42 -20 -42 -8 0 5 8 11 18 13 31 8 36 7 24 -5z m239 -14
c10 -13 10 -17 0 -24 -9 -5 -10 -10 -2 -14 20 -13 12 -23 -14 -18 -25 4 -31
23 -19 56 8 20 18 20 35 0z m-389 -6 c3 -7 2 -24 -2 -38 -5 -20 -13 -26 -44
-28 -29 -3 -36 0 -30 10 5 7 7 25 5 40 -2 26 0 28 32 28 19 0 37 -6 39 -12z
m153 -17 c5 -8 -20 -41 -31 -41 -2 0 -4 11 -4 25 0 25 23 35 35 16z m183 -13
c-4 -30 -38 -37 -38 -9 0 28 -17 27 -23 -1 -4 -20 -4 -19 -6 5 -1 25 2 27 35
27 31 0 35 -3 32 -22z m139 -30 c-3 -8 -6 -5 -6 6 -1 11 2 17 5 13 3 -3 4 -12
1 -19z m-27 -4 c0 -2 -9 -4 -20 -4 -11 0 -20 4 -20 9 0 5 9 7 20 4 11 -3 20
-7 20 -9z m-543 0 c-3 -3 -12 -4 -19 -1 -8 3 -5 6 6 6 11 1 17 -2 13 -5z m-16
-31 c-10 -4 -8 -9 10 -18 20 -11 30 -11 58 1 40 17 52 18 31 3 -12 -8 -9 -10
13 -6 15 2 27 0 27 -4 0 -5 4 -9 10 -9 5 0 7 7 4 15 -4 8 -1 15 6 15 6 0 8 -4
5 -10 -3 -5 1 -10 9 -10 9 0 16 -4 16 -8 0 -11 60 -9 77 1 6 4 14 1 17 -5 4
-7 4 -3 2 10 -2 12 0 20 5 16 5 -3 9 -11 9 -19 0 -8 5 -17 12 -21 7 -5 8 -3 3
6 -5 9 -4 11 3 6 28 -17 8 -25 -50 -20 -112 9 -133 12 -162 23 -17 7 -33 8
-40 3 -6 -5 -22 -8 -36 -6 -14 3 -30 5 -37 6 -7 1 -10 5 -7 10 9 14 -9 9 -28
-9 -15 -14 -19 -14 -16 -3 3 15 43 39 63 39 6 0 4 -3 -4 -6z m214 -3 c-12 -5
-14 -9 -6 -9 8 -1 12 -4 8 -7 -9 -9 -28 6 -22 17 4 5 14 9 23 8 14 0 13 -2 -3
-9z m235 6 c0 -2 -7 -7 -16 -10 -8 -3 -12 -2 -9 4 6 10 25 14 25 6z m-403 -12
c-3 -3 -12 -4 -19 -1 -8 3 -5 6 6 6 11 1 17 -2 13 -5z m223 2 c0 -3 -4 -8 -10
-11 -5 -3 -10 -1 -10 4 0 6 5 11 10 11 6 0 10 -2 10 -4z m130 -22 c13 -34 13
-34 -12 -33 -16 1 -18 3 -7 6 11 3 15 11 12 23 -3 11 -9 17 -14 14 -5 -3 -6
-10 -3 -16 4 -6 2 -8 -4 -4 -6 3 -15 -2 -21 -11 -6 -10 -11 -13 -11 -6 0 6 -7
18 -15 27 -14 14 -12 15 15 11 16 -2 30 1 30 6 0 19 21 8 30 -17z m110 0 c0
-1 -24 -2 -52 -2 -37 1 -45 3 -28 7 23 6 80 3 80 -5z m60 8 c0 -4 -12 -8 -27
-9 -24 -1 -25 -1 -8 7 26 11 35 12 35 2z"/>
<path d="M908 1309 c-7 -19 6 -56 15 -42 4 6 3 21 -1 34 -6 16 -10 18 -14 8z"/>
<path d="M908 1195 c-3 -15 -1 -25 6 -25 14 0 19 37 7 45 -5 2 -11 -6 -13 -20z"/>
<path d="M1020 1210 c0 -5 5 -10 10 -10 6 0 10 5 10 10 0 6 -4 10 -10 10 -5 0
-10 -4 -10 -10z"/>
<path d="M1014 1172 c2 -9 6 -16 10 -15 23 6 24 9 7 20 -16 10 -19 9 -17 -5z"/>
<path d="M760 1171 c0 -6 5 -13 10 -16 6 -3 10 1 10 9 0 9 -4 16 -10 16 -5 0
-10 -4 -10 -9z"/>
<path d="M810 1165 c0 -8 5 -15 10 -15 6 0 10 7 10 15 0 8 -4 15 -10 15 -5 0
-10 -7 -10 -15z"/>
<path d="M764 1119 c-3 -6 -1 -16 5 -22 8 -8 11 -5 11 11 0 24 -5 28 -16 11z"/>
<path d="M1077 1083 c-11 -11 -8 -33 5 -33 6 0 8 3 5 7 -4 3 -2 12 4 20 11 13
-2 19 -14 6z"/>
<path d="M654 1079 c-3 -6 -1 -16 5 -22 8 -8 11 -5 11 11 0 24 -5 28 -16 11z"/>
<path d="M686 1065 c4 -8 8 -15 10 -15 2 0 4 7 4 15 0 8 -4 15 -10 15 -5 0 -7
-7 -4 -15z"/>
<path d="M1020 1055 c0 -8 5 -15 10 -15 6 0 10 7 10 15 0 8 -4 15 -10 15 -5 0
-10 -7 -10 -15z"/>
<path d="M612 1365 c7 -8 128 -8 135 -1 4 3 -27 6 -67 6 -40 0 -71 -2 -68 -5z"/>
<path d="M790 1366 c0 -9 30 -14 35 -6 4 6 -3 10 -14 10 -12 0 -21 -2 -21 -4z"/>
<path d="M1193 1363 c9 -2 25 -2 35 0 9 3 1 5 -18 5 -19 0 -27 -2 -17 -5z"/>
<path d="M640 1340 c-13 -8 -12 -10 3 -10 9 0 17 5 17 10 0 12 -1 12 -20 0z"/>
<path d="M1025 1340 c-18 -8 -17 -9 8 -9 16 -1 26 3 22 9 -3 6 -7 10 -8 9 -1
0 -11 -4 -22 -9z"/>
<path d="M1125 1340 c-24 -6 -18 -8 29 -9 33 0 57 1 55 3 -11 9 -57 12 -84 6z"/>
<path d="M590 1311 c0 -5 9 -7 20 -4 11 3 20 7 20 9 0 2 -9 4 -20 4 -11 0 -20
-4 -20 -9z"/>
<path d="M1070 1313 c0 -5 36 -8 80 -8 44 0 80 3 80 8 0 4 -36 7 -80 7 -44 0
-80 -3 -80 -7z"/>
<path d="M795 1290 c-3 -5 -1 -10 4 -10 6 0 11 5 11 10 0 6 -2 10 -4 10 -3 0
-8 -4 -11 -10z"/>
<path d="M1030 1289 c-22 -6 -20 -7 13 -8 38 -1 47 3 25 11 -7 3 -24 1 -38 -3z"/>
<path d="M589 1280 c32 -8 80 -5 90 6 2 2 -25 4 -60 3 -55 -1 -59 -2 -30 -9z"/>
<path d="M1183 1283 c15 -2 37 -2 50 0 12 2 0 4 -28 4 -27 0 -38 -2 -22 -4z"/>
<path d="M641 1260 c-9 -5 6 -8 38 -7 28 0 49 3 46 5 -9 10 -70 11 -84 2z"/>
<path d="M1066 1260 c9 -8 213 -7 208 2 -3 4 -52 7 -109 6 -57 -1 -102 -5 -99
-8z"/>
<path d="M222 1242 c-13 -2 -28 -15 -35 -29 -9 -21 -8 -27 8 -39 17 -13 21
-13 32 2 9 13 10 21 2 31 -8 9 -8 13 0 13 17 0 51 -38 52 -57 0 -10 2 -27 4
-38 2 -11 7 -46 10 -79 14 -156 51 -219 169 -288 54 -32 67 -55 41 -74 -19
-14 -35 -10 -35 7 0 6 4 8 9 4 15 -8 25 15 12 28 -8 8 -16 7 -28 -6 -14 -13
-15 -21 -5 -42 16 -34 65 -35 88 0 20 31 12 56 -33 98 -25 24 -36 45 -40 73
-2 21 -6 48 -7 59 -2 11 1 33 5 48 12 44 -17 48 -54 7 -25 -28 -28 -38 -24
-73 4 -27 2 -36 -4 -26 -13 20 -10 105 5 169 18 77 13 137 -16 167 -36 39 -95
56 -156 45z m102 -28 c58 -28 75 -91 50 -189 l-13 -50 3 48 c2 26 -1 50 -6 53
-4 3 -9 -10 -9 -28 -2 -55 -6 -78 -14 -86 -4 -4 -6 11 -5 33 1 22 1 42 0 45
-7 21 -5 48 4 43 6 -3 5 0 -1 8 -16 16 -17 33 -3 24 6 -4 9 -1 8 7 -2 7 3 12
10 10 8 -1 11 2 7 8 -5 8 -11 7 -21 -1 -8 -6 -14 -8 -15 -3 -4 43 -13 70 -27
81 -24 17 -9 16 32 -3z m124 -368 c-4 -5 -3 -18 3 -30 10 -20 9 -20 -9 1 -12
14 -19 35 -18 52 1 16 -2 28 -6 25 -12 -8 -9 11 4 24 7 7 8 12 4 12 -5 0 -2 7
5 17 12 14 15 10 19 -38 3 -30 2 -58 -2 -63z"/>
<path d="M324 1170 c0 -13 4 -16 10 -10 7 7 7 13 0 20 -6 6 -10 3 -10 -10z"/>
<path d="M1472 1230 c-65 -30 -85 -95 -59 -196 16 -60 22 -160 10 -167 -4 -3
-8 12 -8 34 -1 43 -35 89 -67 89 -16 0 -18 -5 -12 -22 10 -31 6 -112 -7 -145
-5 -15 -26 -42 -45 -60 -38 -38 -44 -71 -16 -96 23 -21 56 -22 76 -1 20 20 20
29 0 49 -11 11 -20 13 -26 7 -13 -13 0 -35 14 -26 7 4 8 2 4 -4 -13 -22 -46
-14 -46 11 0 17 12 30 43 47 128 71 168 141 183 315 7 89 21 132 44 145 27 15
32 12 20 -10 -9 -16 -8 -22 5 -26 20 -8 45 2 45 18 -2 49 -87 70 -158 38z m33
-34 c-8 -18 -11 -36 -8 -40 4 -3 -7 -6 -23 -7 -26 -1 -27 -2 -6 -7 24 -7 27
-19 10 -39 -7 -9 -7 -13 1 -13 6 0 11 -5 11 -11 0 -5 -4 -8 -8 -5 -4 2 -7 -20
-7 -50 1 -30 -2 -57 -7 -60 -5 -3 -8 -2 -7 3 5 28 -3 103 -10 103 -5 0 -7 -19
-5 -42 3 -30 2 -38 -5 -29 -17 26 -24 130 -11 162 10 23 60 63 87 69 1 0 -4
-15 -12 -34z m-120 -266 c18 -34 19 -44 4 -34 -8 4 -8 0 0 -15 8 -15 9 -21 1
-21 -6 0 -9 -4 -6 -9 3 -5 -2 -19 -12 -30 l-17 -22 -1 31 c-1 23 2 28 8 18 7
-9 8 -5 3 12 -9 37 -11 100 -3 100 4 0 14 -13 23 -30z"/>
<path d="M1470 1175 c-11 -13 -10 -14 4 -9 9 3 16 10 16 15 0 13 -6 11 -20 -6z"/>
<path d="M571 1236 c8 -9 109 -12 109 -4 0 4 -25 8 -57 8 -31 0 -54 -2 -52 -4z"/>
<path d="M1143 1233 c9 -2 23 -2 30 0 6 3 -1 5 -18 5 -16 0 -22 -2 -12 -5z"/>
<path d="M618 1203 c12 -2 30 -2 40 0 9 3 -1 5 -23 4 -22 0 -30 -2 -17 -4z"/>
<path d="M1158 1203 c23 -2 59 -2 80 0 20 2 1 4 -43 4 -44 0 -61 -2 -37 -4z"/>
<path d="M434 1187 c-3 -8 -3 -28 -1 -44 2 -15 -1 -49 -8 -75 -14 -55 -3 -63
33 -25 45 47 44 108 -1 146 -14 11 -18 11 -23 -2z m46 -79 c0 -10 -5 -18 -11
-18 -5 0 -7 -6 -3 -12 4 -7 3 -9 -1 -5 -5 4 -10 26 -10 48 -1 36 0 39 12 23 7
-10 13 -26 13 -36z"/>
<path d="M550 1178 c0 -4 7 -8 15 -8 8 0 15 4 15 8 0 5 -7 9 -15 9 -8 0 -15
-4 -15 -9z"/>
<path d="M590 1180 c0 -5 9 -8 20 -7 21 1 18 10 -5 13 -8 1 -15 -2 -15 -6z"/>
<path d="M1100 1180 c-9 -6 -10 -10 -3 -10 6 0 15 5 18 10 8 12 4 12 -15 0z"/>
<path d="M1338 1173 c-34 -40 -29 -84 14 -130 29 -31 53 -31 37 -1 -6 12 -12
50 -12 85 -1 66 -11 78 -39 46z m18 -57 c1 -38 -1 -43 -12 -31 -15 15 -18 34
-8 59 11 28 19 17 20 -28z"/>
<path d="M550 1129 c0 -5 11 -9 25 -9 14 0 25 2 25 4 0 2 -11 6 -25 8 -14 3
-25 1 -25 -3z"/>
<path d="M1260 1070 c-9 -6 -10 -10 -3 -10 6 0 15 5 18 10 8 12 4 12 -15 0z"/>
<path d="M1541 939 c-28 -17 -51 -53 -51 -81 0 -6 11 -3 25 6 28 18 53 24 109
25 37 1 38 2 24 23 -8 12 -28 28 -45 35 -26 10 -34 9 -62 -8z m74 -22 c7 -7 6
-8 -2 -3 -6 3 -23 2 -38 -4 -34 -13 -55 -2 -30 17 19 13 52 9 70 -10z"/>
<path d="M176 929 c-14 -11 -26 -24 -26 -28 0 -5 25 -11 55 -14 30 -3 69 -12
85 -21 35 -17 35 -17 16 29 -24 57 -81 72 -130 34z m85 0 c27 -14 14 -30 -19
-23 -35 9 -39 13 -22 24 19 12 17 12 41 -1z"/>
<path d="M247 919 c7 -7 15 -10 18 -7 3 3 -2 9 -12 12 -14 6 -15 5 -6 -5z"/>
<path d="M1197 830 c-61 -46 -86 -70 -73 -70 3 0 26 16 51 35 25 18 59 42 75
52 29 17 39 33 21 33 -4 0 -38 -22 -74 -50z"/>
<path d="M1223 809 c-29 -22 -53 -42 -53 -45 0 -8 58 28 93 58 50 42 18 32
-40 -13z"/>
<path d="M240 816 c-34 -20 -62 -74 -49 -98 12 -22 39 -24 39 -3 0 8 -5 15
-12 15 -9 0 -9 3 0 12 9 9 26 9 75 -1 100 -21 116 -23 132 -13 13 7 4 18 -47
55 -66 49 -95 56 -138 33z m40 -18 c0 19 35 14 61 -9 l24 -20 -23 11 c-37 18
-36 5 0 -20 18 -12 26 -19 18 -16 -8 3 -41 13 -72 22 -32 9 -55 21 -52 26 3 4
10 6 15 3 5 -4 9 0 9 7 0 9 3 9 10 -2 6 -10 10 -11 10 -2z"/>
<path d="M1470 813 c-14 -9 -27 -20 -30 -23 -3 -3 -20 -16 -38 -29 -18 -12
-30 -26 -27 -31 7 -11 91 -5 128 9 16 6 42 11 58 11 27 0 29 -2 23 -26 -6 -22
-4 -25 12 -22 26 5 30 36 9 74 -28 52 -89 69 -135 37z m80 -12 c0 -5 8 -11 18
-13 9 -2 -16 -13 -55 -25 -40 -11 -73 -19 -73 -17 0 2 14 11 31 19 35 19 33
33 -3 15 l-23 -11 24 20 c23 21 81 29 81 12z"/>
<path d="M94 655 c7 -20 -55 -165 -71 -165 -23 0 -14 -26 12 -38 38 -17 44
-15 44 16 -1 28 22 102 31 102 3 0 6 -31 6 -70 0 -111 12 -110 113 10 l21 25
-16 -50 c-9 -27 -23 -55 -30 -61 -21 -17 -17 -29 16 -41 30 -11 47 -3 35 17
-8 14 32 140 52 163 15 16 15 19 3 27 -29 18 -45 9 -102 -52 l-57 -63 -1 87
c0 76 -3 89 -19 98 -28 14 -44 12 -37 -5z"/>
<path d="M610 666 c0 -12 44 -28 91 -33 55 -6 68 11 17 21 -60 12 -108 18
-108 12z"/>
<path d="M820 637 c0 -20 4 -37 10 -37 5 0 8 14 6 30 -5 45 -16 49 -16 7z"/>
<path d="M972 661 c-7 -4 -24 -6 -38 -3 -17 3 -24 0 -24 -11 0 -9 5 -19 11
-23 8 -4 7 -9 -2 -15 -11 -7 -10 -9 4 -9 10 0 22 11 27 25 8 22 12 24 24 13
13 -11 13 -15 -2 -25 -14 -12 -14 -13 1 -13 20 0 36 32 19 38 -6 2 -8 10 -5
18 6 16 3 17 -15 5z m-32 -21 c0 -5 -2 -10 -4 -10 -3 0 -8 5 -11 10 -3 6 -1
10 4 10 6 0 11 -4 11 -10z"/>
<path d="M1110 657 c-51 -13 -61 -27 -19 -27 44 0 109 18 109 31 0 11 -40 9
-90 -4z"/>
<path d="M859 658 c-10 -45 3 -77 26 -58 17 14 11 54 -8 58 -9 2 -17 2 -18 0z
m21 -38 c0 -5 -5 -10 -11 -10 -5 0 -7 5 -4 10 3 6 8 10 11 10 2 0 4 -4 4 -10z"/>
<path d="M1618 633 c-40 -16 -47 -27 -25 -40 7 -4 26 -41 41 -82 21 -57 24
-76 14 -82 -9 -6 -8 -9 4 -14 19 -8 105 28 128 53 17 18 23 52 8 52 -4 0 -8 6
-8 13 0 7 -9 18 -20 25 -11 7 -20 20 -20 30 0 10 -7 28 -16 40 -18 26 -52 28
-106 5z m80 -37 c4 -17 -12 -35 -30 -36 -12 0 -29 40 -23 51 11 16 49 6 53
-15z m28 -64 c25 -16 26 -50 2 -66 -22 -16 -23 -16 -40 21 -9 20 -14 41 -12
45 6 10 35 10 50 0z"/>
<path d="M1459 571 c-20 -16 -24 -28 -22 -69 2 -76 34 -128 84 -135 71 -12
110 74 69 153 -35 69 -85 88 -131 51z m86 -37 c9 -14 19 -47 22 -73 5 -43 3
-50 -16 -61 -18 -9 -26 -9 -38 2 -36 30 -57 130 -32 155 16 16 46 5 64 -23z"/>
<path d="M375 493 c-61 -91 -67 -98 -89 -106 -27 -10 -9 -26 39 -34 35 -6 37
-5 30 17 -9 29 9 41 46 28 30 -10 37 -26 18 -45 -17 -17 -4 -29 35 -31 34 -2
48 10 27 22 -10 6 -17 42 -27 141 -10 98 -17 98 -79 8z m42 -69 c-2 -3 -11 -2
-20 2 -14 5 -14 9 1 42 l17 35 3 -37 c2 -21 1 -40 -1 -42z"/>
<path d="M1353 553 c-22 -4 -33 -33 -14 -33 16 0 23 -52 9 -61 -28 -18 -56
-10 -61 18 -3 16 -1 31 5 34 18 11 -1 27 -25 22 -50 -11 -53 -13 -36 -26 18
-14 51 -165 38 -173 -21 -13 -8 -31 19 -27 52 9 59 13 41 26 -9 7 -19 28 -23
49 -6 35 -5 37 25 43 39 9 51 -6 45 -57 -2 -20 -2 -39 1 -42 4 -4 62 12 72 21
3 2 -3 9 -12 16 -20 15 -59 165 -44 170 11 3 1 28 -11 26 -4 -1 -17 -4 -29 -6z"/>
<path d="M545 508 c9 -37 -13 -161 -32 -175 -21 -16 -13 -24 31 -30 27 -3 36
-1 36 10 0 9 -4 17 -10 19 -5 2 -7 13 -4 26 5 15 14 22 31 22 37 0 60 16 72
50 7 22 7 38 -1 55 -12 28 -22 32 -84 41 -43 6 -45 5 -39 -18z m79 -24 c9 -8
16 -22 16 -29 0 -18 -28 -45 -46 -45 -15 0 -18 29 -8 68 7 26 17 28 38 6z"/>
<path d="M1115 513 c-69 -10 -100 -86 -50 -119 34 -22 31 -47 -7 -78 -27 -21
-30 -28 -19 -35 29 -18 75 21 85 72 3 15 12 27 20 27 19 0 27 -60 9 -67 -25
-10 -13 -23 21 -23 18 0 39 7 46 15 10 12 10 15 -4 15 -10 0 -17 9 -17 23 -2
27 -5 48 -13 104 -4 25 -3 44 4 48 6 3 8 11 5 16 -6 9 -25 10 -80 2z m31 -70
c-1 -38 -4 -40 -46 -34 -5 0 -14 10 -20 20 -13 24 10 51 44 51 20 0 23 -5 22
-37z"/>
<path d="M697 504 c-4 -4 -7 -14 -7 -21 0 -11 8 -13 31 -8 l31 7 -7 -83 c-5
-58 -11 -86 -22 -94 -20 -15 -5 -26 37 -27 35 -1 50 9 31 21 -10 6 -12 29 -8
92 3 46 6 85 6 87 1 1 10 -2 22 -9 24 -12 51 3 33 20 -11 12 -138 24 -147 15z"/>
<path d="M870 491 c0 -6 4 -12 8 -15 13 -8 7 -162 -7 -179 -17 -21 -4 -26 59
-22 41 3 59 9 72 26 43 52 3 120 -74 128 -12 1 -10 39 2 46 21 13 9 25 -25 25
-19 0 -35 -4 -35 -9z m93 -103 c25 -19 28 -54 7 -73 -31 -28 -49 -13 -45 37 1
24 3 44 4 46 3 6 19 1 34 -10z"/>
<path d="M255 230 c-8 -14 3 -30 21 -30 8 0 14 9 14 20 0 21 -24 28 -35 10z"/>
<path d="M1525 231 c-8 -15 3 -31 21 -31 9 0 14 7 12 17 -4 20 -24 28 -33 14z"/>
<path d="M354 205 c4 -24 16 -30 16 -7 0 12 -4 22 -9 22 -5 0 -8 -7 -7 -15z"/>
<path d="M1427 213 c-4 -6 5 -21 18 -33 29 -27 33 -16 6 19 -10 13 -21 19 -24
14z"/>
<path d="M378 185 c-3 -14 -1 -25 3 -25 5 0 9 4 9 9 0 5 3 16 6 25 3 9 2 16
-4 16 -5 0 -12 -11 -14 -25z"/>
<path d="M417 181 c-13 -26 -13 -28 4 -24 11 3 19 0 19 -6 0 -7 4 -10 9 -7 10
6 3 54 -9 61 -5 3 -15 -8 -23 -24z"/>
<path d="M1368 205 c-7 -7 2 -55 11 -55 11 0 32 40 26 50 -7 11 -28 13 -37 5z
m27 -15 c3 -5 1 -10 -4 -10 -6 0 -11 5 -11 10 0 6 2 10 4 10 3 0 8 -4 11 -10z"/>
<path d="M481 187 c-15 -15 -14 -32 3 -46 10 -8 16 -9 21 -1 3 5 -1 10 -9 10
-23 0 -19 19 6 29 17 6 18 9 6 14 -9 3 -21 0 -27 -6z"/>
<path d="M1311 188 c-1 -9 4 -20 9 -23 6 -4 7 -11 4 -17 -4 -6 -1 -9 7 -6 8 2
15 18 17 34 2 26 1 27 -9 9 -12 -19 -12 -19 -20 0 -6 16 -8 17 -8 3z"/>
<path d="M537 178 c4 -7 6 -21 5 -30 -2 -10 2 -18 8 -18 7 0 10 7 7 15 -4 8
-2 17 3 20 17 11 11 25 -11 25 -14 0 -18 -4 -12 -12z"/>
<path d="M588 165 c-8 -37 -4 -42 19 -24 9 8 14 9 10 2 -4 -6 -3 -14 2 -17 5
-3 11 6 14 19 2 14 0 28 -4 31 -5 3 -9 0 -9 -5 0 -18 -18 -12 -22 7 -3 11 -6
7 -10 -13z"/>
<path d="M1225 179 c-4 -6 -14 -8 -22 -5 -11 5 -13 2 -9 -10 3 -8 6 -23 7 -32
0 -14 2 -13 9 3 5 11 9 14 9 8 2 -27 16 -11 16 17 0 33 -1 35 -10 19z"/>
<path d="M1264 159 c12 -33 31 -40 21 -8 -4 13 -2 25 5 29 7 5 3 8 -13 8 -23
0 -24 -2 -13 -29z"/>
<path d="M1420 176 c0 -9 5 -16 10 -16 6 0 10 4 10 9 0 6 -4 13 -10 16 -5 3
-10 -1 -10 -9z"/>
<path d="M1143 174 c3 -3 2 -16 -3 -28 -7 -20 -5 -23 19 -23 27 0 27 1 14 29
-8 15 -19 28 -25 28 -6 0 -9 -3 -5 -6z"/>
<path d="M660 162 c0 -6 -2 -16 -5 -24 -3 -8 3 -13 19 -14 21 -2 23 1 17 19
-8 22 -31 36 -31 19z"/>
<path d="M719 168 c0 -2 -2 -16 -4 -31 -3 -24 -1 -26 11 -16 10 8 14 8 14 0 0
-6 4 -11 8 -11 5 0 8 10 6 23 -1 12 -3 25 -3 30 -1 6 -30 11 -32 5z"/>
<path d="M807 149 c-9 -33 -9 -39 4 -39 5 0 7 5 3 12 -5 8 -2 9 9 5 20 -8 22
3 4 28 -13 17 -14 17 -20 -6z"/>
<path d="M887 139 c-15 -35 -13 -54 3 -29 7 11 11 11 24 1 14 -12 15 -10 4 20
-15 46 -15 46 -31 8z"/>
<path d="M940 134 c0 -36 1 -37 15 -18 13 16 16 17 25 4 8 -12 10 -11 10 7 0
12 -4 25 -10 28 -5 3 -10 1 -10 -4 0 -6 -5 -11 -11 -11 -5 0 -8 4 -4 9 3 5 1
12 -5 16 -6 4 -10 -8 -10 -31z"/>
<path d="M1006 155 c4 -11 7 -28 8 -37 1 -26 15 -22 26 8 13 34 12 54 -1 31
-10 -18 -11 -18 -26 0 -14 17 -14 17 -7 -2z"/>
<path d="M1070 155 c-19 -22 5 -48 31 -34 23 12 25 35 3 43 -21 8 -20 8 -34
-9z m40 -10 c0 -7 -30 -13 -34 -7 -3 4 4 9 15 9 10 1 19 0 19 -2z"/>
<path d="M841 153 c0 -5 4 -17 9 -28 8 -18 9 -17 9 8 1 15 -3 27 -9 27 -5 0
-10 -3 -9 -7z"/>
</g>
</svg>
